<?xml version="1.0" encoding="UTF-8" standalone="no"?>
<!DOCTYPE svg PUBLIC "-//W3C//DTD SVG 1.1//EN" "http://www.w3.org/Graphics/SVG/1.1/DTD/svg11.dtd">
<svg width="100%" height="100%" viewBox="0 0 256 256" version="1.1" xmlns="http://www.w3.org/2000/svg" xmlns:xlink="http://www.w3.org/1999/xlink" xml:space="preserve" xmlns:serif="http://www.serif.com/" style="fill-rule:evenodd;clip-rule:evenodd;stroke-linejoin:round;stroke-miterlimit:2;">
    <g transform="matrix(0.707107,-0.707107,0.707107,0.707107,-48.2464,132.773)">
        <g transform="matrix(1,0,0,1,2.84217e-14,5.5)">
            <path d="M144,19.964L128,-0L112,19.964L112,168.445L144,168.445L144,19.964ZM131.208,38.769C131.208,36.998 129.771,35.561 128,35.561C126.229,35.561 124.792,36.998 124.792,38.769L124.792,156.366C124.792,158.137 126.229,159.575 128,159.575C129.771,159.575 131.208,158.137 131.208,156.366L131.208,38.769Z" style="fill:rgb(105,186,201);"/>
        </g>
        <path d="M164,165.891L164,182L92,182L92,165.891C102.44,167.861 114.782,169 128,169C141.218,169 153.56,167.861 164,165.891Z" style="fill:rgb(105,186,201);"/>
        <g transform="matrix(1,0,0,1,1.42109e-14,10.5)">
            <path d="M140,176.5L116,176.5L116,214.5C116,221.123 121.377,226.5 128,226.5C134.623,226.5 140,221.123 140,214.5L140,176.5Z" style="fill:rgb(105,186,201);"/>
        </g>
    </g>
    <path d="M89.993,182.978L73.022,166.007L46.152,192.877C41.469,197.56 41.469,205.164 46.152,209.848C50.836,214.531 58.44,214.531 63.123,209.848L89.993,182.978ZM101.989,131.383L111.035,140.428L97.011,154.452C95.759,155.704 95.759,157.737 97.011,158.989C98.263,160.241 100.296,160.241 101.548,158.989L115.572,144.965L124.617,154.011L105.954,172.674C111.399,177.38 116.774,181.529 121.89,185.022L110.499,196.413L59.587,145.501L70.978,134.11C74.471,139.226 78.62,144.601 83.326,150.046L101.989,131.383ZM131.383,101.989L184.417,48.955L209.848,46.152L207.045,71.583L154.011,124.617L144.965,115.572L184.702,75.835C185.955,74.583 185.955,72.55 184.702,71.298C183.45,70.045 181.417,70.045 180.165,71.298L140.428,111.035L131.383,101.989Z" style="fill:rgb(105,186,201);"/>
</svg>
